<svg enable-background="new 0 0 92.5 65.7" viewBox="0 0 92.5 65.7" xmlns="http://www.w3.org/2000/svg"><path d="m27.5 965.9c-.5.1-.8.7-.7 1.2l13.5 50.2c.1.4.6.9 1.2.7l50.2-13.5c.5-.1.8-.7.7-1.2l-13.4-50.2c-.1-.5-.7-.8-1.2-.7-.1 0-50.3 13.5-50.3 13.5zm49.9-11.3 12.9 48.3-18.4 4.9-3.9-14.5c-.1-.5-.7-.8-1.2-.7l-9.7 2.6c-.5.1-.9.7-.7 1.2l3.9 14.5-18.4 4.9-12.9-48.3zm-76.7 35c-.5.1-.9.7-.7 1.2.1.5.7.8 1.2.7l21.3-5.7c.5-.1.9-.7.7-1.2-.1-.5-.7-.9-1.2-.7 0 0-21.3 5.7-21.3 5.7zm10.4 7.6c-.5.1-.9.7-.7 1.2.1.5.7.8 1.2.7l13.5-3.6c.5-.1.9-.7.7-1.2-.1-.5-.7-.9-1.2-.7zm8.3 8.1c-.5.1-.9.7-.7 1.2.1.5.7.9 1.2.7l7.7-2.1c.5-.1.9-.7.7-1.2-.1-.5-.7-.8-1.2-.7.1 0-7.7 2.1-7.7 2.1zm39.2-8.4 7.7-2.1 3.6 13.5-7.7 2.1z" transform="translate(0 -952.36218)"/></svg>