<svg enable-background="new 0 0 59.8 39.1" viewBox="0 0 59.8 39.1" xmlns="http://www.w3.org/2000/svg"><path d="m3.5 39.1c-2 0-3.5-1.5-3.5-3.5v-32.1c0-2 1.5-3.5 3.5-3.5h52.8c2 0 3.5 1.5 3.5 3.5v32.1c0 2-1.5 3.5-3.5 3.5zm-2.5-3.5c0 1.4 1.1 2.5 2.5 2.5h52.8c1.4 0 2.5-1.1 2.5-2.4v-22h-57.8zm57.8-22.9v-4.4h-57.8v4.4zm0-5.4v-3.8c0-1.4-1.1-2.5-2.5-2.5h-52.8c-1.4 0-2.5 1.1-2.5 2.5v3.8z"/><path d="m56.3.1h-52.8c-1.9 0-3.4 1.5-3.4 3.4v32.1c0 1.9 1.5 3.4 3.4 3.4h52.8c1.9 0 3.4-1.5 3.4-3.4v-32.1c0-1.9-1.5-3.4-3.4-3.4zm-55.4 8.1h58v4.6h-58c0 0 0-4.6 0-4.6zm2.6-7.3h52.8c1.4 0 2.6 1.2 2.6 2.6v3.9h-58v-3.9c0-1.4 1.2-2.6 2.6-2.6zm52.8 37.3h-52.8c-1.4 0-2.6-1.2-2.6-2.6v-22h58v22.1c0 1.4-1.2 2.5-2.6 2.5z"/><path d="m6 30.4c-.3 0-.5-.2-.5-.5s.2-.5.5-.5h21.8c.3 0 .5.2.5.5s-.2.5-.5.5z"/><path d="m27.8 29.5h-21.8c-.2 0-.4.2-.4.4s.2.4.4.4h21.8c.2 0 .4-.2.4-.4s-.2-.4-.4-.4z"/><path d="m47.8 33.3c-.9 0-1.5-.6-1.5-1.5v-3.8c0-.9.6-1.5 1.5-1.5h3.8c.7 0 1.5.6 1.5 1.5v3.8c0 .9-.6 1.5-1.5 1.5zm0-5.8c-.2 0-.5.3-.5.5v3.8c0 .2.3.5.5.5h3.8c.2 0 .5-.3.5-.5v-3.8c0-.2-.3-.5-.5-.5z"/><path d="m51.6 26.6h-3.8c-.8 0-1.4.6-1.4 1.4v3.8c0 .8.6 1.4 1.4 1.4h3.8c.8 0 1.4-.6 1.4-1.4v-3.8c0-.8-.7-1.4-1.4-1.4zm.6 5.2c0 .3-.3.6-.6.6h-3.8c-.3 0-.6-.3-.6-.6v-3.8c0-.3.3-.6.6-.6h3.8c.3 0 .6.3.6.6z"/><path d="m39.2 33.3c-.9 0-1.5-.6-1.5-1.5v-3.8c0-.9.6-1.5 1.5-1.5h3.8c.7 0 1.5.6 1.5 1.5v3.8c0 .9-.6 1.5-1.5 1.5zm0-5.8c-.2 0-.5.3-.5.5v3.8c0 .2.3.5.5.5h3.8c.2 0 .5-.3.5-.5v-3.8c0-.2-.3-.5-.5-.5z"/><path d="m43 26.6h-3.8c-.8 0-1.4.6-1.4 1.4v3.8c0 .8.6 1.4 1.4 1.4h3.8c.8 0 1.4-.6 1.4-1.4v-3.8c0-.8-.7-1.4-1.4-1.4zm.6 5.2c0 .3-.3.6-.6.6h-3.8c-.3 0-.6-.3-.6-.6v-3.8c0-.3.3-.6.6-.6h3.8c.3 0 .6.3.6.6z"/></svg>