<svg enable-background="new 0 0 90 90" viewBox="0 0 90 90" xmlns="http://www.w3.org/2000/svg"><path d="m45 0c-24.8 0-45 20.2-45 45s20.2 45 45 45 45-20.2 45-45-20.2-45-45-45zm0 2c11.5 0 21.9 4.5 29.7 11.9l-12.4 12.4c-4.5-4.2-10.6-6.8-17.3-6.8s-12.7 2.6-17.3 6.8l-12.4-12.4c7.8-7.4 18.2-11.9 29.7-11.9zm23.4 43c0 12.9-10.5 23.4-23.4 23.4s-23.4-10.5-23.4-23.4 10.5-23.4 23.4-23.4 23.4 10.5 23.4 23.4zm-66.4 0c0-11.5 4.5-21.9 11.9-29.7l12.4 12.4c-4.2 4.5-6.8 10.6-6.8 17.3s2.6 12.7 6.8 17.3l-12.4 12.4c-7.4-7.8-11.9-18.2-11.9-29.7zm43 43c-11.5 0-21.9-4.5-29.7-11.9l12.4-12.4c4.5 4.2 10.6 6.8 17.3 6.8s12.7-2.6 17.3-6.8l12.4 12.4c-7.8 7.4-18.2 11.9-29.7 11.9zm31.1-13.3-12.4-12.4c4.2-4.5 6.8-10.6 6.8-17.3s-2.6-12.7-6.8-17.3l12.4-12.4c7.4 7.8 11.9 18.2 11.9 29.7s-4.5 21.9-11.9 29.7z"/></svg>