<svg enable-background="new 0 0 76 76" viewBox="0 0 76 76" xmlns="http://www.w3.org/2000/svg"><g transform="translate(0 -952.36218)"><path d="m1.6 966.4c-.6.1-1 .5-.9 1.1s.5 1 1.1.9h72.4c.6 0 1-.4 1-1s-.4-1-1-1h-72.4s-.1 0-.2 0z"/><path d="m60 952.4c-.6 0-1 .5-1 1 0 .3.1.6.3.7l14.7 13.7v58.6h-67c-.6 0-1 .4-1 1s.4 1 1 1h68c.6 0 1-.4 1-1v-60c0-.3-.1-.6-.3-.8l-15-14c-.2-.1-.5-.2-.7-.2zm-44.2 0c-.2 0-.4.1-.5.3l-15 14c-.2.2-.3.5-.3.8v60c0 .6.4 1 1 1s1-.4 1-1v-59.6l14.4-13.4h37.6c.6 0 1-.4 1-1s-.4-1-1-1h-38c-.1-.1-.1-.1-.2-.1z"/><path d="m37.8 952.7c-.5.1-.8.5-.8 1v13.3c0 .6.4 1 1 1s1-.4 1-1v-13.3c0-.6-.4-1-1-1-.1-.1-.1 0-.2 0z"/><path d="m21.8 996.4c-.6.1-1 .5-.9 1.1s.5 1 1.1.9h33c.6 0 1-.4 1-1s-.4-1-1-1h-33c-.1 0-.1 0-.2 0z"/><path d="m35 984.4c-.2 0-.5.1-.6.3l-14 12c-.4.4-.5 1-.1 1.4l.1.1 14 12c.4.4 1.1.3 1.4-.1.4-.4.3-1.1-.1-1.4l-13.1-11.2 13.1-11.3c.4-.3.5-1 .2-1.4-.3-.3-.6-.5-.9-.4z"/></g></svg>